<svg id="svg" xmlns="http://www.w3.org/2000/svg" xmlns:xlink="http://www.w3.org/1999/xlink" width="400" height="400" viewBox="0, 0, 400,400"><g id="svgg"><path id="path0" d="M306.170 50.224 C 298.622 55.303,300.193 60.470,313.429 74.102 C 327.789 88.892,338.213 104.066,345.441 120.703 C 351.262 134.100,361.911 136.634,366.441 125.698 C 370.104 116.855,348.440 80.508,326.107 58.027 C 315.985 47.838,312.021 46.287,306.170 50.224 M140.234 56.650 C 124.912 62.944,117.183 78.564,122.266 92.969 C 122.910 94.796,123.438 96.394,123.438 96.521 C 123.438 96.647,122.295 96.997,120.898 97.297 C 104.960 100.727,94.524 115.322,96.985 130.740 C 97.489 133.892,102.099 145.148,111.863 167.068 C 119.645 184.536,126.794 200.586,127.751 202.734 L 129.491 206.641 120.800 206.658 C 101.495 206.696,87.572 220.583,87.528 239.844 C 87.503 251.014,91.110 257.498,104.183 269.784 C 109.751 275.016,118.346 284.043,123.283 289.844 C 179.339 355.701,235.650 368.778,294.558 329.616 C 322.253 311.204,335.502 285.714,335.533 250.781 C 335.555 227.079,334.879 224.889,312.297 175.391 C 303.476 156.055,291.785 130.215,286.319 117.969 C 273.322 88.857,272.728 87.730,268.057 83.361 C 257.539 73.523,240.992 72.773,229.406 81.610 L 226.754 83.633 223.979 77.788 C 215.729 60.416,195.743 54.849,179.844 65.496 L 176.484 67.746 171.641 62.906 C 163.286 54.558,151.191 52.149,140.234 56.650 M155.500 75.407 C 158.429 76.921,156.893 73.735,183.546 133.594 C 196.077 161.738,207.103 186.347,208.048 188.280 C 211.959 196.282,220.494 197.560,225.712 190.926 C 229.068 186.659,228.753 185.748,207.031 137.020 C 183.565 84.378,183.796 85.348,193.653 80.903 C 201.953 77.160,201.936 77.133,226.978 133.594 C 242.489 168.567,249.269 183.027,250.873 184.554 C 255.218 188.690,260.862 188.400,264.870 183.835 C 269.018 179.111,268.572 177.552,252.449 140.405 C 236.619 103.934,236.495 103.489,240.847 98.740 C 244.296 94.977,249.097 94.296,253.082 97.004 C 255.425 98.596,256.974 101.516,265.031 119.534 C 270.122 130.919,282.508 158.340,292.555 180.469 C 315.932 231.954,316.037 232.272,315.919 251.172 C 315.712 284.358,300.407 306.371,266.218 322.657 C 223.349 343.078,183.994 329.095,139.390 277.596 C 131.182 268.118,121.830 258.593,113.436 251.158 C 104.642 243.371,106.027 231.076,116.174 226.837 C 122.787 224.073,123.649 224.499,152.521 244.781 C 180.156 264.194,178.675 263.283,182.566 263.276 C 188.132 263.266,192.113 259.215,192.156 253.516 C 192.193 248.568,190.368 246.715,174.609 235.712 L 159.766 225.346 138.129 176.931 C 113.148 121.032,113.316 121.706,123.336 117.503 C 131.559 114.054,131.888 114.548,153.174 162.257 C 173.305 207.376,173.104 207.035,179.608 207.028 C 185.492 207.022,190.599 201.239,189.514 195.813 C 189.256 194.524,178.294 169.539,165.154 140.290 C 152.013 111.040,141.081 86.021,140.861 84.691 C 139.726 77.846,148.930 72.009,155.500 75.407 M50.391 113.023 C 34.466 117.204,25.859 211.505,40.702 219.181 C 50.353 224.171,56.340 216.996,54.386 202.782 C 51.229 179.824,53.411 155.099,60.636 131.951 C 65.004 117.957,60.848 110.278,50.391 113.023 " stroke="none" fill="#000000" fill-rule="evenodd"></path></g></svg>